<?xml version="1.0" encoding="UTF-8" standalone="no"?>
<!DOCTYPE svg PUBLIC "-//W3C//DTD SVG 1.1//EN" "http://www.w3.org/Graphics/SVG/1.1/DTD/svg11.dtd">
<svg width="100%" height="100%" viewBox="0 0 600 400" version="1.1" xmlns="http://www.w3.org/2000/svg" xmlns:xlink="http://www.w3.org/1999/xlink" xml:space="preserve" xmlns:serif="http://www.serif.com/" style="fill-rule:evenodd;clip-rule:evenodd;stroke-linejoin:round;stroke-miterlimit:2;">
    <g id="Layer1">
        <rect x="-1028.23" y="-248.288" width="1712.17" height="4055.19" style="fill:#3d4345;"/>
        <rect x="-13.101" y="-13.059" width="626.202" height="426.201" style="fill:url(#_Radial1);"/>
        <path d="M133.037,315.473C129.304,315.473 126.318,314.62 123.972,312.807C121.519,310.994 119.812,308.434 118.639,305.021C117.466,301.715 116.933,297.769 116.933,293.076C116.933,288.597 117.573,284.651 118.852,281.558C120.132,278.358 121.945,275.905 124.185,274.199C126.531,272.599 129.304,271.746 132.397,271.746C135.063,271.746 137.516,272.386 139.649,273.772C141.782,275.052 143.809,276.865 145.622,279.318L153.514,273.666C151.594,270.786 149.461,268.653 147.222,266.947C144.875,265.347 142.529,264.174 140.076,263.427C137.73,262.787 135.277,262.361 132.93,262.467C130.371,262.361 127.704,262.787 125.145,263.427C122.585,264.067 120.132,265.24 117.786,266.733C115.44,268.227 113.307,270.146 111.493,272.599C109.68,275.052 108.294,278.038 107.227,281.558C106.161,285.077 105.628,289.13 105.628,293.823C105.628,298.942 106.268,303.528 107.547,307.368C108.721,311.207 110.534,314.407 112.88,316.966C115.226,319.526 117.999,321.446 121.305,322.725C124.612,324.005 128.238,324.645 132.397,324.645C136.237,324.645 139.969,324.005 143.276,322.619C146.688,321.232 149.781,319.206 152.768,316.433L147.115,309.181C144.875,311.207 142.529,312.807 140.289,313.873C137.943,314.94 135.49,315.473 133.037,315.473ZM207.053,293.716C207.053,289.13 206.627,285.077 205.667,281.665C204.814,278.145 203.64,275.159 202.041,272.813C200.547,270.36 198.734,268.333 196.601,266.84C194.468,265.347 192.229,264.174 189.669,263.427C187.216,262.787 184.656,262.361 181.99,262.467C179.43,262.361 176.871,262.787 174.311,263.427C171.752,264.174 169.405,265.24 167.059,266.733C164.819,268.227 162.793,270.253 161.086,272.706C159.273,275.159 157.887,278.038 156.82,281.558C155.86,284.971 155.327,289.024 155.327,293.716C155.327,300.542 156.394,306.301 158.42,310.887C160.446,315.473 163.326,318.886 167.166,321.126C171.005,323.472 175.591,324.645 180.924,324.645C184.87,324.645 188.496,324.005 191.695,322.725C194.895,321.446 197.668,319.526 199.908,316.86C202.254,314.3 203.96,311.1 205.24,307.261C206.413,303.315 207.053,298.836 207.053,293.716ZM166.632,293.183C166.632,291.05 166.739,288.917 167.059,286.891C167.485,284.758 167.912,282.838 168.659,281.025C169.405,279.212 170.365,277.612 171.538,276.225C172.711,274.839 174.098,273.666 175.698,272.919C177.297,272.173 179.217,271.746 181.35,271.746C183.697,271.746 185.723,272.173 187.323,273.132C189.029,274.092 190.416,275.372 191.482,276.865C192.549,278.465 193.402,280.171 194.042,282.091C194.682,284.118 195.215,286.037 195.428,288.064C195.748,290.09 195.855,292.116 195.855,293.93C195.855,296.169 195.748,298.302 195.428,300.329C195.108,302.462 194.682,304.381 193.935,306.194C193.295,308.008 192.442,309.607 191.269,311.1C190.202,312.487 188.816,313.553 187.216,314.3C185.616,315.047 183.803,315.473 181.563,315.473C179.11,315.473 176.977,315.047 175.271,314.193C173.565,313.34 172.071,312.167 171.005,310.674C169.832,309.181 168.979,307.474 168.339,305.555C167.699,303.635 167.272,301.608 166.952,299.475C166.739,297.342 166.526,295.316 166.632,293.183ZM246.514,302.782L246.301,302.782L231.37,263.534L219.105,263.534L215.585,323.579L226.144,323.579L228.383,282.518L228.49,282.518L242.035,316.86L250.354,316.86L264.325,282.198L264.432,282.198L266.778,323.579L277.23,323.579L273.924,263.534L261.979,263.534L246.514,302.782ZM299.947,302.568L307.626,302.568C311.038,302.568 314.238,302.035 317.011,301.182C319.89,300.329 322.343,299.049 324.477,297.342C326.503,295.636 328.103,293.503 329.276,290.943C330.449,288.384 330.982,285.397 330.982,281.878C330.982,277.932 330.129,274.519 328.423,271.746C326.716,269.08 324.263,266.947 321.064,265.56C317.864,264.174 314.025,263.534 309.652,263.534L288.962,263.534L288.962,323.579L299.947,323.579L299.947,302.568ZM299.947,293.716L299.947,272.279L305.493,272.279C307.732,272.279 309.652,272.386 311.465,272.599C313.171,272.919 314.665,273.452 315.838,274.199C317.118,274.946 318.077,276.012 318.717,277.399C319.357,278.785 319.677,280.705 319.677,283.051C319.677,285.717 319.037,287.85 317.971,289.344C316.904,290.943 315.304,292.116 313.385,292.756C311.358,293.396 309.119,293.823 306.452,293.716L299.947,293.716ZM339.301,323.579L344.634,307.688L365.751,307.688L371.19,323.579L382.922,323.579L361.698,263.534L349.433,263.534L328.636,323.579L339.301,323.579ZM355.192,273.666L355.512,273.666L363.618,299.369L346.873,299.369L355.192,273.666ZM426.969,263.534L426.969,305.235L426.755,305.235L401.479,263.534L390.387,263.534L390.387,323.579L401.159,323.579L401.159,281.238L401.372,281.238L427.289,323.579L437.847,323.579L437.847,263.534L426.969,263.534ZM482.747,263.534L469.843,289.557L469.416,289.557L456.404,263.534L444.139,263.534L463.657,300.649L463.657,323.579L474.642,323.579L474.642,300.649L494.372,263.534L482.747,263.534Z" style="fill:#84ad40;fill-rule:nonzero;"/>
        <g id="CorelEMF" serif:id="CorelEMF">
        </g>
        <g>
            <g>
                <g>
                    <rect x="600" y="-26.201" width="26.202" height="26.202"/>
                    <rect x="-26.202" y="-26.201" width="26.202" height="26.202"/>
                </g>
                <g>
                    <rect x="600" y="400" width="26.202" height="26.202"/>
                    <rect x="-26.202" y="400" width="26.202" height="26.202"/>
                </g>
                <g opacity="0.37">
                    <rect x="600" y="0.316" width="26.202" height="399.684"/>
                    <rect x="-26.202" y="0.316" width="26.202" height="399.684"/>
                </g>
            </g>
            <g opacity="0.37">
                <path d="M0.06,0.04L0.06,-26.161L599.931,-26.161L599.931,0.04L0.06,0.04Z"/>
                <path d="M0.06,426.239L0.06,400.037L599.931,400.037L599.931,426.239L0.06,426.239Z"/>
            </g>
        </g>
        <g id="CorelEMF1" serif:id="CorelEMF">
        </g>
        <g id="CorelEMF2" serif:id="CorelEMF">
        </g>
        <g id="CorelEMF3" serif:id="CorelEMF">
        </g>
        <g>
            <path d="M297.828,163.502C285.491,151.007 277.472,130.798 277.472,108.012C277.472,85.137 285.554,64.86 297.974,52.376L298.119,52.523C310.456,65.018 318.476,85.226 318.476,108.012C318.476,130.887 310.393,151.165 297.974,163.648L297.828,163.502Z" style="fill:#117542;"/>
            <path d="M303.146,232.178L292.801,232.178L273.924,213.301L298.027,189.304L322.024,213.301L303.146,232.178Z" style="fill:#f79f2a;"/>
            <path d="M315.091,176.72L315.091,176.506L350.713,114.648L366.604,92.038L378.869,75.401C378.975,75.294 379.082,75.187 379.189,75.081C376.522,107.183 402.012,175.76 315.091,176.72Z" style="fill:#0e7542;"/>
            <path d="M315.091,176.506C301.76,97.371 359.352,90.438 378.869,75.401L366.604,92.038L350.713,114.648L315.091,176.506Z" style="fill:#70be46;"/>
            <path d="M306.879,185.358C322.343,148.35 360.205,99.184 367.777,90.438C367.35,91.292 366.817,92.252 366.177,93.211C350.499,115.288 323.943,155.709 309.652,187.918C308.052,187.598 306.986,186.425 306.879,185.358Z" style="fill:#5bb948;"/>
            <path d="M366.177,93.211C354.872,112.942 320.85,165.734 313.278,187.385C311.998,188.025 310.718,188.131 309.652,187.918C323.943,155.709 350.499,115.288 366.177,93.211Z" style="fill:#07653d;"/>
            <path d="M280.856,176.72L280.856,176.506L245.234,114.648L229.343,92.038L217.078,75.401C216.972,75.294 216.865,75.187 216.758,75.081C219.531,107.183 193.935,175.76 280.856,176.72Z" style="fill:#0e7542;"/>
            <path d="M280.856,176.506C294.187,97.371 236.596,90.438 217.078,75.401L229.343,92.038L245.234,114.648L280.856,176.506Z" style="fill:#70be46;"/>
            <path d="M289.068,185.358C273.604,148.35 235.742,99.184 228.17,90.438C228.597,91.292 229.13,92.252 229.77,93.211C245.448,115.288 272.004,155.709 286.295,187.918C287.895,187.598 288.962,186.425 289.068,185.358Z" style="fill:#5bb948;"/>
            <path d="M229.77,93.211C241.075,112.942 275.097,165.734 282.669,187.385C283.949,188.025 285.229,188.131 286.295,187.918C272.004,155.709 245.448,115.288 229.77,93.211Z" style="fill:#07653d;"/>
            <path d="M298.027,218.314C336.421,218.314 367.67,186.958 367.67,148.564C367.67,110.169 336.421,78.813 298.027,78.813C259.632,78.813 228.277,110.169 228.277,148.564C228.277,186.958 259.632,218.314 298.027,218.314Z" style="fill:#f79f2a;"/>
            <path d="M298.027,88.625C300.693,88.625 303.253,88.839 305.812,89.159C270.617,93.211 242.675,121.261 238.622,156.456C238.302,153.896 238.089,151.23 238.089,148.564C238.089,115.502 264.858,88.625 298.027,88.625Z" style="fill:#fab926;"/>
            <path d="M307.092,227.806L307.092,227.592L377.376,157.202L406.811,132.459L429.315,114.542C429.528,114.435 429.742,114.328 429.955,114.328C414.704,156.456 424.302,257.881 307.092,227.806Z" style="fill:#84ad40;"/>
            <path d="M288.855,227.806L288.855,227.592L218.572,157.202L189.136,132.459L166.632,114.542C166.419,114.435 166.206,114.328 165.992,114.328C181.244,156.456 171.645,257.881 288.855,227.806Z" style="fill:#84ad40;"/>
            <path d="M304.959,231.752L305.386,227.486C309.119,188.131 322.343,151.55 359.458,132.886C381.748,121.687 408.518,120.834 424.516,116.568L420.143,119.448L403.399,132.246L304.959,231.752ZM290.988,231.752L290.561,227.486C286.829,188.131 273.604,151.55 236.489,132.886C214.199,121.687 187.429,120.834 171.432,116.568L175.804,119.448L192.549,132.246L290.988,231.752Z" style="fill:#ebff7a;"/>
            <path d="M307.092,227.592C317.757,116.355 397.639,127.66 429.315,114.542L406.811,132.459L377.376,157.202L307.092,227.592Z" style="fill:#c0d73a;"/>
            <path d="M288.855,227.592C278.19,116.355 198.308,127.66 166.632,114.542L189.136,132.459L218.572,157.202L288.855,227.592Z" style="fill:#c0d73a;"/>
            <path d="M292.908,236.551C327.036,192.291 395.72,139.818 409.051,130.859C408.091,131.819 407.025,132.886 405.958,134.059C376.842,158.056 326.503,202.849 295.787,241.03C293.761,239.964 292.588,238.044 292.908,236.551Z" style="fill:#ebff7a;"/>
            <path d="M303.04,236.551C268.911,192.291 200.227,139.818 186.896,130.859C187.856,131.819 188.922,132.886 189.989,134.059C219.105,158.056 269.444,202.849 300.16,241.03C302.186,239.964 303.36,238.044 303.04,236.551Z" style="fill:#ebff7a;"/>
            <path d="M405.958,134.059C383.668,156.349 318.717,215.221 300.693,241.564C298.773,241.99 297.067,241.777 295.787,241.03C326.503,202.849 376.842,158.056 405.958,134.059Z" style="fill:#5a8340;"/>
            <path d="M189.989,134.059C212.279,156.349 277.23,215.221 295.254,241.564C297.174,241.99 298.88,241.777 300.16,241.03C269.444,202.849 219.105,158.056 189.989,134.059Z" style="fill:#5a8340;"/>
        </g>
    </g>
    <defs>
        <radialGradient id="_Radial1" cx="0" cy="0" r="1" gradientUnits="userSpaceOnUse" gradientTransform="matrix(2.19595e-14,-366.128,358.626,2.24189e-14,300,200.041)"><stop offset="0" style="stop-color:#fff;stop-opacity:1"/><stop offset="1" style="stop-color:#eee;stop-opacity:1"/></radialGradient>
    </defs>
</svg>
